<mxfile host="app.diagrams.net" modified="2023-08-24T10:06:13.313Z" agent="Mozilla/5.0 (Macintosh; Intel Mac OS X 10.15; rv:109.0) Gecko/20100101 Firefox/116.0" version="21.6.9" etag="tZGuqiqjGgvy9h8my0GI" type="github">
  <diagram name="Page-1" id="lLI3dPo2x8Fm7gbJsYGU">
    <mxGraphModel>
      <root>
        <mxCell id="0" />
        <mxCell id="1" parent="0" />
      </root>
    </mxGraphModel>
  </diagram>
</mxfile>
